<svg xmlns="http://www.w3.org/2000/svg" width="16" height="16" viewBox="0 0 16 16">
    <path fill="#CED0D6" fill-rule="evenodd"
          d="M3,1 C1.8954305,1 1,1.8954305 1,3 L1,13 C1,14.1045695 1.8954305,15 3,15 L13,15 C14.1045695,15 15,14.1045695 15,13 L15,3 C15,1.8954305 14.1045695,1 13,1 L3,1 Z M3,2.5 L13,2.5 C13.2761424,2.5 13.5,2.72385763 13.5,3 L13.5,13 C13.5,13.2761424 13.2761424,13.5 13,13.5 L3,13.5 C2.72385763,13.5 2.5,13.2761424 2.5,13 L2.5,3 C2.5,2.72385763 2.72385763,2.5 3,2.5 Z M4,4 L4,12 L6,12 L6,4 L4,4 Z"/>

    <!-- Верхние строки -->
    <rect x="7" y="4" width="5" height="1" fill="#CED0D6"/>
    <rect x="7" y="7" width="5" height="1" fill="#CED0D6"/>

    <text x="7.7" y="11"
          fill="#CED0D6"
          font-family="Georgia, serif"
          font-size="2.5"
          font-weight="700">R3
    </text>
</svg>